<?xml version="1.0" encoding="iso-8859-1"?>
<!-- Uploaded to: SVG Repo, www.svgrepo.com, Generator: SVG Repo Mixer Tools -->
<svg height="800px" width="800px" version="1.1" id="Layer_1" xmlns="http://www.w3.org/2000/svg" xmlns:xlink="http://www.w3.org/1999/xlink" 
	 viewBox="0 0 511.999 511.999" xml:space="preserve">
<path style="fill:#B27214;" d="M207.192,129.493c-4.412,0-8.365-3.094-9.286-7.584c-0.176-0.85-4.245-21.101-1.889-44.667
	c3.278-32.781,17.431-56.069,40.931-67.348c4.718-2.267,10.393-0.277,12.662,4.449c2.267,4.725,0.276,10.395-4.45,12.662
	c-42.61,20.453-28.806,90.387-28.661,91.091c1.054,5.135-2.255,10.15-7.39,11.203C208.466,129.428,207.824,129.493,207.192,129.493z
	"/>
<path style="fill:#F95428;" d="M338.627,114.396c48.842,17.171,89.611,61.735,77.666,163.278
	c-1.392,11.768-4.138,23.358-8.047,34.594l-62.912,88.33c15.093-49.798-84.009,20.551-123.218,46.946
	c-9.376-0.86-18.815-0.785-28.179,0.202C114.094,456.111,13.324,373.042,2.1,277.674C-9.845,176.131,30.924,131.567,79.766,114.396
	c16.361-5.745,31.861-6.883,46.045-5.163c55.434,6.732,111.336,6.732,166.758,0C306.766,107.513,322.253,108.651,338.627,114.396z"
	/>
<path style="fill:#E54728;" d="M87.506,277.674c-11.945-101.543,28.824-146.107,77.666-163.278c1.318-0.463,2.628-0.884,3.935-1.289
	c-14.453-0.84-28.89-2.124-43.296-3.873c-14.184-1.721-29.685-0.582-46.045,5.163C30.924,131.567-9.845,176.131,2.1,277.674
	c11.223,95.368,111.994,178.437,191.836,170.073c9.363-0.987,18.803-1.063,28.179-0.202c-3.906-3.801-7.572-7.799-10.998-11.967
	C150.906,409.547,95.647,346.852,87.506,277.674z"/>
<path style="fill:#F9DCB2;" d="M222.115,447.544c-34.101-33.177-50.778-80.753-34.252-135.276h220.382h88.94
	c35.847,89.193-45.868,184.447-147.74,184.447C300.414,496.715,253.761,478.33,222.115,447.544z"/>
<path style="fill:#DDBB8E;" d="M261.971,447.544c-34.101-33.177-50.778-80.753-34.252-135.276h-39.855
	c-16.525,54.523,0.152,102.099,34.252,135.276c31.646,30.785,78.299,49.171,127.33,49.171c6.438,0,12.795-0.383,19.048-1.119
	C327.262,491.202,289.101,473.937,261.971,447.544z"/>
<path style="fill:#B27214;" d="M330.348,363.867l14.003-14.003c7.042-7.042,18.457-7.042,25.499,0l1.254,1.254
	c7.042,7.042,7.042,18.457,0,25.499l-1.254,1.254c-7.042,7.042-18.457,7.042-25.499,0L330.348,363.867z"/>
<path style="fill:#D13420;" d="M490.366,312.268l0.948,2.36c14.458,35.971,9.691,74.614-13.42,108.811
	c-27.911,41.297-77.128,66.951-128.45,66.951c-47.163,0-91.967-17.269-122.919-47.379c-35.696-34.731-47.276-80.51-32.609-128.907
	l0.557-1.835h-13.19c-7.76,26.682-8.239,52.693-1.373,77.341c6.423,23.063,19.491,44.665,37.793,62.471
	c33.295,32.387,81.311,50.962,131.741,50.962c55.466,0,108.702-27.788,138.933-72.519c24.668-36.5,30.283-79.454,15.584-118.255
	h-13.595V312.268z"/>
</svg>